HIERARCHY
ROOT joint_Root
{
	OFFSET 0.0 0.0 0.0
	CHANNELS 6 Xposition Yposition Zposition Zrotation Xrotation Yrotation 
	JOINT Hips
	{
		OFFSET 4.5925 91.4895 -427.239
		CHANNELS 6 Xposition Yposition Zposition Zrotation Xrotation Yrotation 
		JOINT Spine
		{
			OFFSET 15.7357 0.0 0.0
			CHANNELS 6 Xposition Yposition Zposition Zrotation Xrotation Yrotation 
			JOINT Chest
			{
				OFFSET 8.98455 -0.406207 0.0
				CHANNELS 6 Xposition Yposition Zposition Zrotation Xrotation Yrotation 
				JOINT Neck
				{
					OFFSET 16.3773 0.0 0.0
					CHANNELS 6 Xposition Yposition Zposition Zrotation Xrotation Yrotation 
					JOINT Head
					{
						OFFSET 6.45672 0.0 0.0
						CHANNELS 6 Xposition Yposition Zposition Zrotation Xrotation Yrotation 
						End Site
						{
							OFFSET 0.0 0.0 0.0
						}
					}
				}
				JOINT Shoulder_L
				{
					OFFSET 12.9942 -0.242716 4.98039
					CHANNELS 6 Xposition Yposition Zposition Zrotation Xrotation Yrotation 
					JOINT UpperArm_L
					{
						OFFSET 5.34809 0.0 0.0
						CHANNELS 6 Xposition Yposition Zposition Zrotation Xrotation Yrotation 
						JOINT LowerArm_L
						{
							OFFSET 24.3286 1.87007e-05 0.0
							CHANNELS 6 Xposition Yposition Zposition Zrotation Xrotation Yrotation 
							JOINT Hand_L
							{
								OFFSET 22.2916 0.0 0.0
								CHANNELS 6 Xposition Yposition Zposition Zrotation Xrotation Yrotation 
								End Site
								{
									OFFSET 0.0 0.0 0.0
								}
							}
						}
					}
				}
				JOINT Shoulder_R
				{
					OFFSET 12.9945 -0.242716 -4.98039
					CHANNELS 6 Xposition Yposition Zposition Zrotation Xrotation Yrotation 
					JOINT UpperArm_R
					{
						OFFSET -5.34813 0.0 0.0
						CHANNELS 6 Xposition Yposition Zposition Zrotation Xrotation Yrotation 
						JOINT LowerArm_R
						{
							OFFSET -24.3289 0.000322201 0.0
							CHANNELS 6 Xposition Yposition Zposition Zrotation Xrotation Yrotation 
							JOINT Hand_R
							{
								OFFSET -22.2915 -0.000108084 0.0
								CHANNELS 6 Xposition Yposition Zposition Zrotation Xrotation Yrotation 
								End Site
								{
									OFFSET 0.0 0.0 0.0
								}
							}
						}
					}
				}
			}
		}
		JOINT UpperLeg_L
		{
			OFFSET -2.19248 -6.46944 0.0
			CHANNELS 6 Xposition Yposition Zposition Zrotation Xrotation Yrotation 
			JOINT LowerLeg_L
			{
				OFFSET 39.0811 0.0 -1.23785e-05
				CHANNELS 6 Xposition Yposition Zposition Zrotation Xrotation Yrotation 
				JOINT Foot_L
				{
					OFFSET 40.9854 0.0 -1.26872e-05
					CHANNELS 6 Xposition Yposition Zposition Zrotation Xrotation Yrotation 
					JOINT Toes_L
					{
						OFFSET 11.7543 0.0 0.0
						CHANNELS 6 Xposition Yposition Zposition Zrotation Xrotation Yrotation 
						End Site
						{
							OFFSET 0.0 0.0 0.0
						}
					}
				}
			}
		}
		JOINT UpperLeg_R
		{
			OFFSET -2.19251 6.46944 0.0
			CHANNELS 6 Xposition Yposition Zposition Zrotation Xrotation Yrotation 
			JOINT LowerLeg_R
			{
				OFFSET -39.0811 -0.00228153 -0.0401928
				CHANNELS 6 Xposition Yposition Zposition Zrotation Xrotation Yrotation 
				JOINT Foot_R
				{
					OFFSET -40.9854 0.0 0.0
					CHANNELS 6 Xposition Yposition Zposition Zrotation Xrotation Yrotation 
					JOINT Toes_R
					{
						OFFSET -11.7543 0.0 0.0
						CHANNELS 6 Xposition Yposition Zposition Zrotation Xrotation Yrotation 
						End Site
						{
							OFFSET 0.0 0.0 0.0
						}
					}
				}
			}
		}
	}
}
MOTION
Frames:	5
Frame Time:	0.0333333
0.000000 0.000000 0.000000 0.000000 0.000000 -0.000000 -1.034860 91.304800 1.202070 89.582100 -1.402660 4.082430 15.735700 0.000005 -0.000001 80.671300 88.171900 -81.123300 8.984550 -0.406207 -0.000000 -4.160320 -0.545204 -0.924396 16.377300 -0.000001 -0.000001 3.350780 -3.456640 3.297390 6.456720 -0.000001 -0.000000 -2.865620 -2.648940 1.728950 12.994200 -0.242716 4.980390 -83.699600 -11.097700 -60.161300 5.348090 -0.000007 -0.000001 -43.211900 -61.776400 -91.018600 24.328600 0.000019 0.000005 22.531900 14.989500 -58.064800 22.291600 -0.000001 0.000005 25.622100 5.353880 -1.491950 12.994500 -0.242716 -4.980390 94.402100 -9.968290 -66.024200 -5.348130 -0.000001 -0.000004 -37.705300 -62.498400 -85.119100 -24.328900 0.000322 -0.000009 7.489130 5.860960 -52.171600 -22.291500 -0.000108 -0.000004 21.554300 5.571100 -9.735060 -2.192480 -6.469440 -0.000000 -175.600000 -11.046000 -3.430210 39.081100 -0.000007 -0.000012 -0.175014 0.341138 27.159400 40.985400 -0.000006 -0.000013 -0.708073 4.552630 -69.474900 11.754300 -0.000000 0.000003 -0.000172 -0.001634 -16.639400 -2.192510 6.469440 -0.000001 176.093000 21.476000 179.007000 -39.081100 -0.002282 -0.040193 0.011676 -0.016968 26.246400 -40.985400 0.000008 0.000006 7.097580 12.419100 -72.016000 -11.754300 -0.000006 -0.000006 -0.001047 -0.016073 -17.226800
0.000000 0.000000 0.000000 0.000000 0.000000 -0.000000 -1.020460 91.318500 1.141340 89.575000 -1.436840 4.125560 15.735700 0.000005 -0.000001 81.212900 88.060700 -81.657700 8.984550 -0.406207 -0.000000 -3.935050 -0.546719 -0.908665 16.377300 -0.000001 -0.000001 3.291830 -3.595650 3.330710 6.456720 -0.000001 -0.000000 -2.915960 -2.701310 1.670330 12.994200 -0.242716 4.980390 -84.021400 -10.663100 -60.490700 5.348090 -0.000007 -0.000001 -42.738400 -61.060200 -87.733200 24.328600 0.000019 0.000005 19.306100 10.579800 -62.351300 22.291600 -0.000001 0.000005 24.606500 5.343120 -1.172700 12.994500 -0.242716 -4.980390 94.178800 -9.544720 -66.220500 -5.348130 -0.000001 -0.000004 -36.478300 -61.802100 -81.830400 -24.328900 0.000322 -0.000009 4.117750 2.869350 -55.222100 -22.291500 -0.000108 -0.000004 20.679500 5.543620 -8.402970 -2.192480 -6.469440 -0.000000 -175.585000 -11.151400 -3.404680 39.081100 -0.000007 -0.000012 -0.175150 0.341975 27.120400 40.985400 -0.000006 -0.000013 -0.684565 4.606210 -69.413600 11.754300 -0.000000 0.000003 -0.000175 -0.001655 -16.640200 -2.192510 6.469440 -0.000001 176.111000 21.393200 179.015000 -39.081100 -0.002282 -0.040193 0.013851 -0.021413 26.211700 -40.985400 0.000008 0.000006 7.127710 12.372000 -71.958400 -11.754300 -0.000006 -0.000006 -0.000935 -0.014485 -17.162300
0.000000 0.000000 0.000000 0.000000 0.000000 -0.000000 -0.990875 91.330700 1.067490 89.584000 -1.465230 4.120040 15.735700 0.000005 -0.000001 81.232100 87.956600 -81.662700 8.984550 -0.406207 -0.000000 -3.729030 -0.579428 -0.880362 16.377300 -0.000001 -0.000001 3.180810 -3.636320 3.336390 6.456720 -0.000001 -0.000000 -3.239980 -2.633030 1.593960 12.994200 -0.242716 4.980390 -84.443600 -10.090000 -60.957800 5.348090 -0.000007 -0.000001 -41.705600 -59.887400 -82.779400 24.328600 0.000019 0.000005 16.275700 6.595240 -68.539400 22.291600 -0.000001 0.000005 23.961000 5.337670 -1.010320 12.994500 -0.242716 -4.980390 93.845200 -8.917530 -66.558600 -5.348130 -0.000001 -0.000004 -35.057900 -60.627300 -77.484800 -24.328900 0.000322 -0.000009 0.657379 0.385660 -59.835100 -22.291500 -0.000108 -0.000004 19.950400 5.524420 -7.551050 -2.192480 -6.469440 -0.000000 -175.625000 -11.216500 -3.448310 39.081100 -0.000007 -0.000012 -0.171782 0.335773 27.094600 40.985400 -0.000006 -0.000013 -0.642941 4.641590 -69.353700 11.754300 -0.000000 0.000003 -0.000171 -0.001620 -16.639000 -2.192510 6.469440 -0.000001 176.047000 21.493600 178.971000 -39.081100 -0.002282 -0.040193 0.002709 0.001221 26.180300 -40.985400 0.000008 0.000006 6.945070 12.586000 -71.843100 -11.754300 -0.000006 -0.000006 -0.000947 -0.014653 -17.169100
0.000000 0.000000 0.000000 0.000000 0.000000 -0.000000 -0.950004 91.337900 0.978200 89.611800 -1.550400 4.154430 15.735700 0.000005 -0.000001 82.394200 87.845900 -82.808700 8.984550 -0.406207 -0.000000 -3.497530 -0.529193 -0.845500 16.377300 -0.000001 -0.000001 3.011440 -3.614350 3.293900 6.456720 -0.000001 -0.000000 -3.541720 -2.577230 1.559300 12.994200 -0.242716 4.980390 -85.034100 -9.323630 -61.795400 5.348090 -0.000007 -0.000001 -39.498900 -58.217100 -75.762500 24.328600 0.000019 0.000005 13.517800 3.404320 -76.137200 22.291600 -0.000001 0.000005 23.684000 5.337780 -1.013700 12.994500 -0.242716 -4.980390 93.360700 -7.999920 -67.123300 -5.348130 -0.000001 -0.000004 -32.526100 -58.996900 -71.358500 -24.328900 0.000322 -0.000009 -1.991520 -0.893071 -65.792600 -22.291500 -0.000108 -0.000004 19.937100 5.517710 -7.264330 -2.192480 -6.469440 -0.000000 -175.659000 -11.385700 -3.458720 39.081100 -0.000007 -0.000012 -0.171981 0.336260 27.087800 40.985400 -0.000006 -0.000013 -0.592115 4.719380 -69.298700 11.754300 -0.000000 0.000003 -0.000163 -0.001562 -16.636800 -2.192510 6.469440 -0.000001 175.939000 21.606400 178.930000 -39.081100 -0.002282 -0.040193 -0.008728 0.024458 26.205800 -40.985400 0.000008 0.000006 6.781210 12.841200 -71.748600 -11.754300 -0.000006 -0.000006 -0.000833 -0.013005 -17.102100
0.000000 0.000000 0.000000 0.000000 0.000000 -0.000000 -0.900340 91.332800 0.868050 89.623600 -1.726630 4.228470 15.735700 0.000005 -0.000001 83.691000 87.708600 -84.071900 8.984550 -0.406207 -0.000000 -3.212430 -0.466903 -0.775004 16.377300 -0.000001 -0.000001 2.732180 -3.509000 3.265640 6.456720 -0.000001 -0.000000 -3.728050 -2.442850 1.500850 12.994200 -0.242716 4.980390 -85.739300 -8.358840 -62.866600 5.348090 -0.000007 -0.000001 -36.395100 -55.783000 -66.899100 24.328600 0.000019 0.000005 11.701200 1.123510 -84.596500 22.291600 -0.000001 0.000005 23.650300 5.340610 -1.098350 12.994500 -0.242716 -4.980390 92.792000 -6.900750 -67.909100 -5.348130 -0.000001 -0.000004 -29.884700 -56.603300 -64.277300 -24.328900 0.000322 -0.000009 -3.716070 -1.151210 -72.786800 -22.291500 -0.000108 -0.000004 20.330800 5.519430 -7.338610 -2.192480 -6.469440 -0.000000 -175.690000 -11.561500 -3.491290 39.081100 -0.000007 -0.000012 -0.170202 0.331446 27.181400 40.985400 -0.000006 -0.000013 -0.552148 4.693910 -69.280100 11.754300 -0.000000 0.000003 -0.000183 -0.001718 -16.642500 -2.192510 6.469440 -0.000001 175.838000 21.567200 178.864000 -39.081100 -0.002282 -0.040193 -0.025270 0.057840 26.294500 -40.985400 0.000008 0.000006 6.457720 13.094300 -71.615900 -11.754300 -0.000006 -0.000006 -0.000846 -0.013198 -17.110000
